<?xml version="1.0" encoding="UTF-8"?>
<svg width="101.6mm" height="101.6mm" version="1.1" viewBox="0 0 101.6 101.6" xmlns="http://www.w3.org/2000/svg">
 <rect x=".11021" y=".11021" width="101.38" height="101.38" fill="#fff" stroke="#000" stroke-linecap="square" stroke-linejoin="round" stroke-miterlimit="50" stroke-width=".22042" style="paint-order:fill markers stroke"/>
 <g stroke-width=".99584">
  <path d="m76.26 56.251a7.4786 7.2038 0 0 0-7.4787 7.2034 7.4786 7.2038 0 0 0 2.9447 5.719 7.4786 7.2038 0 0 0-2.9447-0.58386 7.4786 7.2038 0 0 0-7.4787 7.2039 7.4786 7.2038 0 0 0 7.4787 7.2039 7.4786 7.2038 0 0 0 7.0188-4.7431c-1.9737 12.305-8.8271 13.341-13.921 16.934v0.13688h28.737v-0.13688c-5.109-3.6038-11.986-4.6368-13.937-17.045a7.4786 7.2038 0 0 0 7.0602 4.8533 7.4786 7.2038 0 0 0 7.4782-7.2039 7.4786 7.2038 0 0 0-7.4782-7.2039 7.4786 7.2038 0 0 0-3.0019 0.61568 7.4786 7.2038 0 0 0 3.0019-5.7508 7.4786 7.2038 0 0 0-7.4787-7.2034z"/>
  <path d="m22.331 1.9795c-1.7396 9.0344-14.81 13.901-14.957 20.845-4.06e-5 3.7132 3.436 6.7234 7.675 6.7236 2.8116 3.6e-5 5.2649-1.3271 6.6014-3.3027-2.2759 10.429-9.0137 11.44-14.066 14.681v0.12775h29.493v-0.12775c-5.0522-3.2409-11.79-4.2528-14.066-14.681 1.3365 1.9756 3.7898 3.3027 6.6014 3.3027 4.2388-2.19e-4 7.675-3.0104 7.675-6.7236-0.82171-7.0786-13.224-12.198-14.957-20.845z"/>
  <path d="m75.398 40.564c-4.4328-10.784-14.28-19.099-14.957-29.544-4.1e-5 -5.2629 3.4361-9.5296 7.675-9.5299 3.3911-4.7e-5 6.2666 2.7318 7.2821 6.5185 1.0155-3.7868 3.891-6.5186 7.2821-6.5185 4.2388 3.078e-4 7.675 4.2669 7.675 9.5299-0.79955 12.078-10.718 18.209-14.957 29.544z" fill="#f00"/>
  <path d="m8.7569 75.984 14.957-19.537 14.957 19.537-14.957 19.537z" fill="#f00"/>
 </g>
</svg>
